HIERARCHY
ROOT pelvis
{
	OFFSET 0.000000 0.000000 0.000000
	CHANNELS 6 Xposition Yposition Zposition Xrotation Yrotation Zrotation
	JOINT l_hip
	{
		OFFSET 0.195211 -0.245059 -0.022011
		CHANNELS 3 Xrotation Yrotation Zrotation
		JOINT l_knee
		{
			OFFSET 0.083896 -0.996307 -0.018298
			CHANNELS 3 Xrotation Yrotation Zrotation
			JOINT l_ankle
			{
				OFFSET -0.031606 -1.048662 -0.119000
				CHANNELS 3 Xrotation Yrotation Zrotation
				JOINT l_foot
				{
					OFFSET 0.063841 -0.149483 0.312863
					CHANNELS 3 Xrotation Yrotation Zrotation
					End Site
					{
						OFFSET 0.000000 0.000000 0.000000
					}
				}
			}
		}
	}
	JOINT r_hip
	{
		OFFSET -0.188785 -0.243354 -0.013119
		CHANNELS 3 Xrotation Yrotation Zrotation
		JOINT r_knee
		{
			OFFSET -0.098896 -1.013926 -0.025127
			CHANNELS 3 Xrotation Yrotation Zrotation
			JOINT r_ankle
			{
				OFFSET 0.038376 -1.049454 -0.114596
				CHANNELS 3 Xrotation Yrotation Zrotation
				JOINT r_foot
				{
					OFFSET -0.060300 -0.126955 0.322518
					CHANNELS 3 Xrotation Yrotation Zrotation
					End Site
					{
						OFFSET 0.000000 0.000000 0.000000
					}
				}
			}
		}
	}
	JOINT spine1
	{
		OFFSET -0.006861 0.282462 -0.060688
		CHANNELS 3 Xrotation Yrotation Zrotation
		JOINT spine2
		{
			OFFSET 0.009796 0.349212 -0.004686
			CHANNELS 3 Xrotation Yrotation Zrotation
			JOINT spine3
			{
				OFFSET 0.005545 0.134239 0.076232
				CHANNELS 3 Xrotation Yrotation Zrotation
				JOINT neck
				{
					OFFSET -0.005369 0.569656 -0.136135
					CHANNELS 3 Xrotation Yrotation Zrotation
					JOINT head
					{
						OFFSET 0.009621 0.170484 0.137338
						CHANNELS 3 Xrotation Yrotation Zrotation
						End Site
						{
							OFFSET 0.000000 0.000000 0.000000
						}
					}
				}
				JOINT l_collar
				{
					OFFSET 0.205981 0.322192 -0.100872
					CHANNELS 3 Xrotation Yrotation Zrotation
					JOINT l_shoulder
					{
						OFFSET 0.233388 0.086823 -0.019950
						CHANNELS 3 Xrotation Yrotation Zrotation
						JOINT l_elbow
						{
							OFFSET 0.687295 -0.032736 -0.075278
							CHANNELS 3 Xrotation Yrotation Zrotation
							JOINT l_wrist
							{
								OFFSET 0.651109 0.024639 0.000120
								CHANNELS 3 Xrotation Yrotation Zrotation
								JOINT l_hand
								{
									OFFSET 0.217934 -0.026487 -0.036124
									CHANNELS 3 Xrotation Yrotation Zrotation
									End Site
									{
										OFFSET 0.000000 0.000000 0.000000
									}
								}
							}
						}
					}
				}
				JOINT r_collar
				{
					OFFSET -0.210726 0.316244 -0.114374
					CHANNELS 3 Xrotation Yrotation Zrotation
					JOINT r_shoulder
					{
						OFFSET -0.244017 0.089684 -0.026814
						CHANNELS 3 Xrotation Yrotation Zrotation
						JOINT r_elbow
						{
							OFFSET -0.672913 -0.035979 -0.055153
							CHANNELS 3 Xrotation Yrotation Zrotation
							JOINT r_wrist
							{
								OFFSET -0.670689 0.023586 -0.009661
								CHANNELS 3 Xrotation Yrotation Zrotation
								JOINT r_hand
								{
									OFFSET -0.219937 -0.019827 -0.028502
									CHANNELS 3 Xrotation Yrotation Zrotation
									End Site
									{
										OFFSET 0.000000 0.000000 0.000000
									}
								}
							}
						}
					}
				}
			}
		}
	}
}
MOTION
Frames: 16
Frame Time: 0.016667
0.000000 0.000000 0.000000 0.000000 0.000000 0.000000 -29.924103 -4.467795 -0.239044 30.541307 0.304959 -5.017721 0.000000 0.000000 0.000000 0.000000 0.000000 0.000000 -31.598646 3.143910 -9.818472 32.390552 1.630586 -0.404545 0.000000 0.000000 0.000000 0.000000 0.000000 0.000000 23.620123 1.784173 5.230732 -1.064273 -4.166186 5.510376 3.078282 -0.233791 4.757302 -10.443080 -0.671412 6.747433 0.118069 -9.426975 7.253629 -13.095995 -23.413041 6.970856 -38.382362 -36.015205 -52.824396 115.931492 -51.001827 147.223106 0.000000 0.000000 0.000000 0.000000 0.000000 0.000000 -12.392707 19.068338 -6.398086 -22.029010 26.645396 40.711859 111.706874 42.005582 -155.961914 0.000000 0.000000 0.000000 0.000000 0.000000 0.000000 
0.000000 0.000000 0.000000 0.000000 0.000000 0.000000 -29.355399 -4.317844 -0.180599 29.743294 0.569722 -4.991929 0.000000 0.000000 0.000000 0.000000 0.000000 0.000000 -31.239727 3.031667 -9.745765 31.625018 1.826817 -0.544085 0.000000 0.000000 0.000000 0.000000 0.000000 0.000000 23.067753 1.586720 5.250015 -1.139403 -4.364296 5.233818 3.143961 -0.467823 4.650201 -10.415680 -0.595893 6.298983 -0.254186 -8.449219 7.159777 -13.084641 -23.500242 6.536334 -38.535737 -36.159502 -54.355374 115.952135 -51.543254 146.472640 0.000000 0.000000 0.000000 0.000000 0.000000 0.000000 -12.407799 18.569630 -6.849522 -21.875070 26.251512 40.128994 111.947555 42.355932 -156.390953 0.000000 0.000000 0.000000 0.000000 0.000000 0.000000 
0.000000 0.000000 0.000000 0.000000 0.000000 0.000000 -28.907122 -4.138773 -0.063967 29.222841 0.823946 -4.964379 0.000000 0.000000 0.000000 0.000000 0.000000 0.000000 -30.978538 2.951481 -9.627358 31.120841 2.060564 -0.665235 0.000000 0.000000 0.000000 0.000000 0.000000 0.000000 22.641183 1.380796 5.247784 -1.219950 -4.568955 4.930313 3.142523 -0.733368 4.507077 -10.665252 -0.246332 5.946334 -0.601060 -7.460866 6.916229 -13.080947 -23.699857 5.937231 -38.648239 -36.202830 -55.431960 115.401691 -52.195420 145.158035 0.000000 0.000000 0.000000 0.000000 0.000000 0.000000 -12.538353 18.096350 -7.119775 -21.755576 25.754096 39.447357 111.854254 42.817390 -156.604055 0.000000 0.000000 0.000000 0.000000 0.000000 0.000000 
0.000000 0.000000 0.000000 0.000000 0.000000 0.000000 -28.566448 -3.946061 0.094003 28.991357 0.999906 -4.922630 0.000000 0.000000 0.000000 0.000000 0.000000 0.000000 -30.804043 2.904037 -9.451325 30.895535 2.343154 -0.782651 0.000000 0.000000 0.000000 0.000000 0.000000 0.000000 22.284676 1.105231 5.256783 -1.376988 -4.828621 4.615420 3.147414 -1.067042 4.350134 -11.025563 0.458327 5.636732 -0.871279 -6.194135 6.502959 -13.100279 -23.925306 5.245029 -38.784004 -36.188754 -56.398076 114.245175 -52.688038 143.315985 0.000000 0.000000 0.000000 0.000000 0.000000 0.000000 -12.700176 17.629615 -7.287956 -21.823840 25.308057 38.738662 111.187285 43.506687 -156.232210 0.000000 0.000000 0.000000 0.000000 0.000000 0.000000 
0.000000 0.000000 0.000000 0.000000 0.000000 0.000000 -28.289446 -3.779900 0.288390 28.975151 1.173125 -4.841189 0.000000 0.000000 0.000000 0.000000 0.000000 0.000000 -30.684297 2.833401 -9.218042 30.793510 2.630639 -0.887556 0.000000 0.000000 0.000000 0.000000 0.000000 0.000000 21.906602 0.831435 5.202573 -1.410803 -5.042833 4.294419 3.163783 -1.353600 4.241077 -11.345091 0.945174 5.213712 -1.402911 -4.941009 6.199050 -13.078074 -24.179651 4.674256 -38.864529 -36.211963 -57.572200 113.697014 -52.641411 142.142897 0.000000 0.000000 0.000000 0.000000 0.000000 0.000000 -12.695350 17.268437 -7.645742 -21.816166 24.612594 38.014717 110.909469 44.249376 -156.436383 0.000000 0.000000 0.000000 0.000000 0.000000 0.000000 
0.000000 0.000000 0.000000 0.000000 0.000000 0.000000 -27.985799 -3.663630 0.509820 29.068192 1.325225 -4.812316 0.000000 0.000000 0.000000 0.000000 0.000000 0.000000 -30.523316 2.777655 -8.981617 30.790757 2.994408 -0.987579 0.000000 0.000000 0.000000 0.000000 0.000000 0.000000 21.567054 0.599548 5.068218 -1.388756 -5.317590 4.001901 3.190343 -1.609251 4.078235 -11.780687 1.673389 4.761426 -1.880371 -3.885119 5.942090 -12.979297 -24.645255 4.322743 -38.893451 -36.164411 -58.308848 112.752805 -53.491005 140.636315 0.000000 0.000000 0.000000 0.000000 0.000000 0.000000 -12.707589 17.001138 -7.967702 -21.840640 23.969187 37.534781 110.350958 45.078333 -156.448133 0.000000 0.000000 0.000000 0.000000 0.000000 0.000000 
0.000000 0.000000 0.000000 0.000000 0.000000 0.000000 -27.667344 -3.579929 0.742956 29.190763 1.465660 -4.764995 0.000000 0.000000 0.000000 0.000000 0.000000 0.000000 -30.373282 2.730077 -8.700638 30.812259 3.398190 -1.064743 0.000000 0.000000 0.000000 0.000000 0.000000 0.000000 21.193250 0.341173 4.919956 -1.374496 -5.585088 3.712176 3.216793 -1.892312 3.904031 -12.236561 2.590350 4.336604 -2.219270 -2.698822 5.592780 -12.935865 -25.101681 3.771926 -38.886367 -36.305231 -58.882897 112.568650 -54.090718 139.878457 0.000000 0.000000 0.000000 0.000000 0.000000 0.000000 -12.764662 16.689340 -8.047947 -21.768187 23.444214 36.887710 109.921702 46.000600 -156.409834 0.000000 0.000000 0.000000 0.000000 0.000000 0.000000 
0.000000 0.000000 0.000000 0.000000 0.000000 0.000000 -27.381091 -3.517060 0.962600 29.283143 1.639739 -4.714763 0.000000 0.000000 0.000000 0.000000 0.000000 0.000000 -30.280915 2.667473 -8.436072 30.826307 3.799553 -1.141591 0.000000 0.000000 0.000000 0.000000 0.000000 0.000000 20.802213 0.084193 4.795494 -1.412434 -5.850250 3.402954 3.235350 -2.154428 3.699025 -12.860739 3.641060 3.819784 -2.542486 -1.510808 5.127704 -12.953449 -25.564589 3.116626 -38.946907 -36.415162 -59.589953 112.312975 -54.435599 139.017756 0.000000 0.000000 0.000000 0.000000 0.000000 0.000000 -12.844052 16.386943 -7.937610 -21.816189 22.954858 36.220193 109.074198 46.780569 -155.982051 0.000000 0.000000 0.000000 0.000000 0.000000 0.000000 
0.000000 0.000000 0.000000 0.000000 0.000000 0.000000 -26.964720 -3.405256 1.205419 29.179874 1.851687 -4.687231 0.000000 0.000000 0.000000 0.000000 0.000000 0.000000 -30.075187 2.616855 -8.180238 30.697867 4.154381 -1.213125 0.000000 0.000000 0.000000 0.000000 0.000000 0.000000 20.360404 -0.167362 4.653299 -1.370298 -6.076173 3.081427 3.214661 -2.409606 3.474824 -13.329469 4.745433 3.382932 -2.691415 -0.236589 4.619310 -13.020111 -26.044320 2.304355 -39.101447 -36.679734 -60.341169 112.313237 -54.434115 138.332874 0.000000 0.000000 0.000000 0.000000 0.000000 0.000000 -12.888417 16.084522 -7.734843 -21.797384 22.469741 35.481937 108.499354 47.418782 -155.821306 0.000000 0.000000 0.000000 0.000000 0.000000 0.000000 
0.000000 0.000000 0.000000 0.000000 0.000000 0.000000 -26.452750 -3.228670 1.456893 28.968076 2.099086 -4.611387 0.000000 0.000000 0.000000 0.000000 0.000000 0.000000 -29.791200 2.563049 -7.888767 30.430027 4.438324 -1.293505 0.000000 0.000000 0.000000 0.000000 0.000000 0.000000 19.930015 -0.423567 4.514558 -1.364058 -6.262218 2.702494 3.159325 -2.669241 3.229105 -13.633482 5.939104 2.890266 -2.865621 1.136898 3.943005 -13.073783 -26.376962 1.512386 -39.288085 -36.891425 -61.192493 111.963727 -53.981164 137.281782 0.000000 0.000000 0.000000 0.000000 0.000000 0.000000 -12.927605 15.687543 -7.569987 -21.848283 21.990362 34.910019 107.727080 47.968122 -155.463838 0.000000 0.000000 0.000000 0.000000 0.000000 0.000000 
0.000000 0.000000 0.000000 0.000000 0.000000 0.000000 -25.831210 -3.054623 1.677735 28.529380 2.478324 -4.555845 0.000000 0.000000 0.000000 0.000000 0.000000 0.000000 -29.425573 2.533357 -7.634955 29.941116 4.714513 -1.370975 0.000000 0.000000 0.000000 0.000000 0.000000 0.000000 19.395271 -0.677998 4.375876 -1.341849 -6.443963 2.297086 3.037713 -2.932389 2.956826 -14.040093 7.179503 2.309664 -2.984844 2.520815 3.163757 -13.177185 -26.748751 0.504206 -39.279245 -37.128780 -61.915716 111.926866 -53.667371 136.613807 0.000000 0.000000 0.000000 0.000000 0.000000 0.000000 -13.007440 15.396790 -7.205346 -21.826572 21.667404 34.217520 107.219776 48.488595 -155.312741 0.000000 0.000000 0.000000 0.000000 0.000000 0.000000 
0.000000 0.000000 0.000000 0.000000 0.000000 0.000000 -25.210854 -2.906154 1.888362 27.942962 2.863576 -4.514655 0.000000 0.000000 0.000000 0.000000 0.000000 0.000000 -29.096252 2.447312 -7.401902 29.389452 5.004635 -1.455238 0.000000 0.000000 0.000000 0.000000 0.000000 0.000000 18.839455 -0.907080 4.217939 -1.295224 -6.647195 1.903261 2.953022 -3.137533 2.698741 -14.602214 8.450829 1.615506 -3.331567 3.804775 2.494862 -13.312831 -27.215736 -0.249988 -39.369403 -37.346097 -62.633151 112.034646 -53.225491 136.124733 0.000000 0.000000 0.000000 0.000000 0.000000 0.000000 -13.087787 15.124005 -6.970284 -21.858774 21.201510 33.521522 106.253118 48.856929 -154.716725 0.000000 0.000000 0.000000 0.000000 0.000000 0.000000 
0.000000 0.000000 0.000000 0.000000 0.000000 0.000000 -24.484233 -2.697240 2.081593 27.194188 3.180413 -4.433120 0.000000 0.000000 0.000000 0.000000 0.000000 0.000000 -28.645617 2.352874 -7.155105 28.682387 5.308032 -1.613217 0.000000 0.000000 0.000000 0.000000 0.000000 0.000000 18.247842 -1.123350 4.063113 -1.252519 -6.849447 1.468238 2.895861 -3.331565 2.413499 -14.985169 9.575200 0.725651 -3.790913 4.934970 1.831469 -13.435784 -27.681429 -0.815661 -39.524010 -37.578379 -63.450406 112.237076 -52.818826 135.681544 0.000000 0.000000 0.000000 0.000000 0.000000 0.000000 -13.164571 14.814991 -6.939504 -21.871817 20.633636 32.994141 105.856303 49.113759 -154.809394 0.000000 0.000000 0.000000 0.000000 0.000000 0.000000 
0.000000 0.000000 0.000000 0.000000 0.000000 0.000000 -23.618084 -2.516597 2.268121 26.359421 3.585708 -4.359931 0.000000 0.000000 0.000000 0.000000 0.000000 0.000000 -28.120800 2.291199 -6.865773 27.934708 5.664963 -1.786566 0.000000 0.000000 0.000000 0.000000 0.000000 0.000000 17.616305 -1.321591 3.862110 -1.138260 -7.057724 1.074293 2.812035 -3.512645 2.126196 -15.338604 10.732849 -0.184122 -4.156633 5.959435 1.117805 -13.540036 -28.213441 -1.304166 -39.500218 -37.846793 -63.901854 112.642184 -52.446584 135.494007 0.000000 0.000000 0.000000 0.000000 0.000000 0.000000 -13.252096 14.647862 -6.834069 -21.931169 20.229793 32.304101 105.376282 49.325275 -154.754300 0.000000 0.000000 0.000000 0.000000 0.000000 0.000000 
0.000000 0.000000 0.000000 0.000000 0.000000 0.000000 -22.761086 -2.204266 2.466790 25.369456 4.009385 -4.309703 0.000000 0.000000 0.000000 0.000000 0.000000 0.000000 -27.600205 2.263459 -6.639594 27.079132 5.908912 -1.918642 0.000000 0.000000 0.000000 0.000000 0.000000 0.000000 17.016218 -1.579107 3.697102 -1.107003 -7.305949 0.650246 2.618528 -3.745891 1.836499 -15.683661 11.906072 -1.035560 -4.502968 7.057359 0.354281 -13.650031 -28.786376 -1.840051 -39.336743 -38.125387 -64.035872 112.821031 -51.887080 135.217156 0.000000 0.000000 0.000000 0.000000 0.000000 0.000000 -13.346162 14.566014 -6.753662 -21.985450 19.832820 31.577089 105.110994 49.553553 -154.950627 0.000000 0.000000 0.000000 0.000000 0.000000 0.000000 
0.000000 0.000000 0.000000 0.000000 0.000000 0.000000 -22.024270 -1.878381 2.652613 24.340664 4.372653 -4.219281 0.000000 0.000000 0.000000 0.000000 0.000000 0.000000 -27.183895 2.189182 -6.439595 26.210355 6.144819 -2.032421 0.000000 0.000000 0.000000 0.000000 0.000000 0.000000 16.443253 -1.803192 3.533115 -1.163897 -7.589423 0.248842 2.438745 -3.929948 1.572593 -16.143837 13.141558 -1.980197 -4.848329 8.050418 -0.388072 -13.922102 -29.529787 -2.123881 -39.359164 -38.383605 -64.153519 112.690561 -51.286146 134.694406 0.000000 0.000000 0.000000 0.000000 0.000000 0.000000 -13.573510 14.566098 -6.813278 -22.196075 19.325841 30.950068 104.627734 49.521026 -155.220560 0.000000 0.000000 0.000000 0.000000 0.000000 0.000000 
